<?xml version="1.0" encoding="iso-8859-1"?>
<!-- Generator: Adobe Illustrator 19.0.0, SVG Export Plug-In . SVG Version: 6.00 Build 0)  -->
<svg version="1.1" id="Layer_1" xmlns="http://www.w3.org/2000/svg" xmlns:xlink="http://www.w3.org/1999/xlink" x="0px" y="0px"
	 viewBox="0 0 512 512" style="enable-background:new 0 0 512 512;" xml:space="preserve">
<path style="fill:#C69C6D;" d="M396.361,279.04c0,173.306-62.841,222.761-140.36,222.761s-140.36-49.455-140.36-222.761
	c0-212.411,140.36-268.85,140.36-268.85C258.067,11.001,396.361,65.819,396.361,279.04z"/>
<path d="M384.287,143.655c-11.936-32.269-28.625-60.984-49.601-85.348C299.163,17.045,262.813,1.932,259.887,0.76
	c-1.599-0.641-3.333-0.889-5.047-0.696c-0.871,0.099-1.735,0.308-2.572,0.638c-0.023,0.009-0.118,0.044-0.14,0.053
	c-2.11,0.856-38.054,15.855-74.029,57.542c-21.164,24.524-38.014,53.307-50.08,85.548c-14.982,40.033-22.578,85.519-22.578,135.194
	c0,83.899,14.11,143.586,43.136,182.471C173.586,495.013,209.728,512,256,512s82.415-16.987,107.423-50.489
	c29.026-38.885,43.136-98.572,43.136-182.471C406.56,229.161,399.067,183.61,384.287,143.655z M164.925,449.309
	c-25.935-34.742-39.085-92.029-39.085-170.269c0-105.959,36.409-170.802,66.952-206.541c4.163-4.871,8.335-9.352,12.447-13.462
	c-22.071,41.967-43.932,111.024-43.932,220.003c0,83.091,8.388,142.151,25.644,180.551c3.004,6.684,6.291,12.728,9.852,18.142
	C184.545,470.859,173.958,461.411,164.925,449.309z M347.077,449.309c-9.035,12.104-19.623,21.552-31.881,28.426
	c1.806-2.746,3.545-5.644,5.208-8.716c16.836-31.114,26.442-78.629,29.365-145.26c0.247-5.628-4.114-10.39-9.742-10.637
	c-5.648-0.261-10.39,4.115-10.637,9.742C324.478,434.83,299.786,491.601,256,491.601c-49.299,0-74.296-71.516-74.296-212.561
	c0-106.396,21.859-171.633,40.198-207.624c14.335-28.136,28.772-43.186,35.637-49.343c10.702,5.259,36.067,19.783,61.688,49.542
	c30.535,35.468,66.936,100.246,66.936,207.425C386.161,357.279,373.011,414.566,347.077,449.309z"/>
<path d="M340.496,268.84c-5.633,0-10.199,4.566-10.199,10.199c0,2.565-0.008,5.102-0.025,7.613
	c-0.038,5.633,4.499,10.23,10.131,10.268c0.023,0,0.046,0,0.069,0c5.6,0,10.16-4.521,10.198-10.131
	c0.017-2.555,0.025-5.138,0.025-7.75C350.695,273.407,346.129,268.84,340.496,268.84z"/>
<g>
</g>
<g>
</g>
<g>
</g>
<g>
</g>
<g>
</g>
<g>
</g>
<g>
</g>
<g>
</g>
<g>
</g>
<g>
</g>
<g>
</g>
<g>
</g>
<g>
</g>
<g>
</g>
<g>
</g>
</svg>
