<?xml version="1.0" encoding="iso-8859-1"?>
<!-- Generator: Adobe Illustrator 19.0.0, SVG Export Plug-In . SVG Version: 6.00 Build 0)  -->
<svg version="1.1" id="Layer_1" xmlns="http://www.w3.org/2000/svg" xmlns:xlink="http://www.w3.org/1999/xlink" x="0px" y="0px"
	 viewBox="0 0 511.998 511.998" style="enable-background:new 0 0 511.998 511.998;" xml:space="preserve">
<path style="fill:#8CC63F;" d="M278.491,501.801h-44.984c-34.825,0-63.057-28.231-63.057-63.057V117.435h171.097v321.309
	C341.548,473.569,313.316,501.801,278.491,501.801z"/>
<g>
	<path style="fill:#39B54A;" d="M202.292,117.059v-15.245c0-7.772-6.3-14.072-14.072-14.072h-15.245
		c-7.772,0-14.072-6.3-14.072-14.072l0,0c0-7.772-6.3-14.072-14.072-14.072H99.099v45.732c0,7.772,6.3,14.072,14.072,14.072l0,0
		c7.772,0,14.072,6.3,14.072,14.072v15.244c0,7.772,6.3,14.072,14.072,14.072h15.245c7.772,0,14.072,6.3,14.072,14.072l0,0
		c0,7.772,6.3,14.072,14.072,14.072h45.732v-45.732c0-7.772-6.3-14.072-14.072-14.072l0,0
		C208.592,131.13,202.292,124.83,202.292,117.059z"/>
	<path style="fill:#39B54A;" d="M309.708,117.059v-15.245c0-7.772,6.3-14.072,14.072-14.072h15.245
		c7.772,0,14.072-6.3,14.072-14.072l0,0c0-7.772,6.3-14.072,14.072-14.072H412.9v45.732c0,7.772-6.3,14.072-14.072,14.072l0,0
		c-7.772,0-14.072,6.3-14.072,14.072v15.244c0,7.772-6.3,14.072-14.072,14.072H355.44c-7.772,0-14.072,6.3-14.072,14.072l0,0
		c0,7.772-6.3,14.072-14.072,14.072h-45.732v-45.732c0-7.772,6.3-14.072,14.072-14.072l0,0
		C303.408,131.13,309.708,124.83,309.708,117.059z"/>
	<path style="fill:#39B54A;" d="M217.135,146.723l-12.955-12.955c-6.604-6.604-6.604-17.312,0-23.917l12.955-12.955
		c6.604-6.604,6.604-17.312,0-23.917l0,0c-6.604-6.604-6.604-17.312,0-23.917L256,10.199l38.865,38.865
		c6.604,6.604,6.604,17.312,0,23.917l0,0c-6.604,6.604-6.604,17.312,0,23.917l12.955,12.955c6.604,6.604,6.604,17.312,0,23.917
		l-12.955,12.955c-6.604,6.604-6.604,17.312,0,23.917l0,0c6.604,6.604,6.604,17.312,0,23.917L256,233.422l-38.865-38.865
		c-6.604-6.604-6.604-17.312,0-23.917l0,0C223.74,164.036,223.74,153.328,217.135,146.723z"/>
</g>
<path d="M289.135,397.618c-5.633,0-10.199,4.566-10.199,10.199v13.255c0,5.633,4.566,10.199,10.199,10.199
	s10.199-4.566,10.199-10.199v-13.255C299.334,402.184,294.768,397.618,289.135,397.618z"/>
<path d="M412.899,49.401h-45.732c-13.383,0-24.271,10.888-24.271,24.271c0,2.136-1.737,3.873-3.873,3.873H323.78
	c-9.148,0-17.126,5.088-21.262,12.582l-0.441-0.441c-2.617-2.617-2.617-6.876,0-9.493c5.121-5.121,7.941-11.929,7.941-19.17
	s-2.82-14.049-7.94-19.17L263.212,2.987c-3.983-3.983-10.441-3.983-14.425,0l-38.864,38.864c-5.121,5.121-7.94,11.929-7.94,19.17
	c0,7.241,2.82,14.049,7.94,19.169c2.617,2.617,2.617,6.876,0,9.493l-0.441,0.441c-4.136-7.493-12.116-12.582-21.262-12.582h-15.244
	c-2.136,0-3.873-1.737-3.873-3.873c0-13.383-10.888-24.271-24.271-24.271H99.099c-5.633,0-10.199,4.566-10.199,10.199v45.733
	c0,13.383,10.888,24.27,24.271,24.27c2.135,0,3.872,1.737,3.872,3.873v15.244c0,13.383,10.888,24.271,24.271,24.271h15.245
	c1.75,0,3.216,1.175,3.693,2.771v262.981c0,40.393,32.863,73.256,73.256,73.256h44.983c40.393,0,73.256-32.863,73.256-73.256
	V175.763c0.477-1.597,1.943-2.771,3.693-2.771h15.245c13.383,0,24.271-10.888,24.271-24.271v-15.244
	c0-2.136,1.737-3.873,3.872-3.873c13.383,0,24.271-10.888,24.271-24.27V59.601C423.099,53.967,418.532,49.401,412.899,49.401z
	 M224.348,56.276L256,24.623l31.652,31.653c1.268,1.268,1.966,2.954,1.966,4.747c0,1.793-0.698,3.478-1.966,4.747
	c-10.569,10.57-10.569,27.77,0,38.341l12.956,12.955c1.268,1.268,1.966,2.954,1.966,4.746c0,1.793-0.699,3.479-1.966,4.747
	l-12.956,12.955c-10.569,10.57-10.569,27.77,0,38.341c2.617,2.617,2.617,6.875,0,9.492L256,218.998l-31.652-31.653
	c-2.617-2.617-2.617-6.875,0-9.493c10.569-10.57,10.569-27.77,0-38.34l0,0l-12.955-12.955c-1.268-1.268-1.966-2.954-1.966-4.747
	s0.699-3.479,1.966-4.746l12.955-12.956c10.569-10.57,10.569-27.77,0-38.341c-1.268-1.268-1.965-2.954-1.965-4.746
	C222.381,59.229,223.08,57.544,224.348,56.276z M156.559,152.592h-15.245c-2.136,0-3.873-1.737-3.873-3.873v-15.244
	c0-13.383-10.888-24.271-24.27-24.271c-2.136,0-3.873-1.737-3.873-3.872V69.799h35.533c2.136,0,3.873,1.737,3.873,3.873
	c0,13.383,10.888,24.271,24.271,24.271h15.244c2.136,0,3.873,1.737,3.873,3.873v7.456c-2,3.825-3.065,8.1-3.065,12.54
	c0,7.241,2.82,14.049,7.941,19.17l12.955,12.954c2.617,2.617,2.617,6.876,0,9.493c-4.678,4.678-7.429,10.767-7.87,17.307h-17.351
	c-2.136,0-3.873-1.737-3.873-3.873c0-1.08-0.079-2.141-0.215-3.184c-0.053-0.75-0.182-1.478-0.388-2.174
	C177.779,160.692,168.101,152.592,156.559,152.592z M278.491,491.601h-44.983c-29.146,0-52.857-23.712-52.857-52.857V200.789
	c1.319,0.222,2.67,0.345,4.051,0.345h24.616c0.2,0.213,0.398,0.427,0.605,0.635l2.926,2.926c-0.116,0.617-0.184,1.251-0.184,1.903
	v214.473c0,5.633,4.566,10.199,10.199,10.199s10.199-4.566,10.199-10.199V224.911l15.724,15.723
	c1.992,1.992,4.602,2.987,7.212,2.987s5.221-0.996,7.212-2.987l15.724-15.723v143.145c0,5.633,4.566,10.199,10.199,10.199
	s10.199-4.566,10.199-10.199V206.599c0-0.651-0.067-1.286-0.184-1.903l2.926-2.926c0.208-0.208,0.405-0.422,0.605-0.635h24.616
	c1.381,0,2.733-0.122,4.051-0.345v237.955C331.349,467.889,307.637,491.601,278.491,491.601z M402.7,105.333
	c0,2.135-1.737,3.872-3.873,3.872c-13.383,0-24.27,10.888-24.27,24.271v15.244c0,2.136-1.737,3.873-3.873,3.873H355.44
	c-11.541,0-21.22,8.1-23.667,18.913c-0.206,0.697-0.335,1.425-0.388,2.174c-0.138,1.042-0.215,2.104-0.215,3.184
	c0,2.136-1.737,3.873-3.873,3.873h-17.351c-0.442-6.54-3.191-12.629-7.87-17.307c-2.617-2.617-2.617-6.876,0-9.493l12.956-12.955
	c5.121-5.121,7.941-11.929,7.941-19.17c0-4.445-1.067-8.724-3.072-12.552c0-0.043,0.006-0.084,0.006-0.126v-7.316
	c0-2.136,1.737-3.873,3.873-3.873h15.244c13.383,0,24.271-10.888,24.271-24.271c0-2.136,1.737-3.873,3.873-3.873h35.533v35.533
	H402.7z"/>
<g>
</g>
<g>
</g>
<g>
</g>
<g>
</g>
<g>
</g>
<g>
</g>
<g>
</g>
<g>
</g>
<g>
</g>
<g>
</g>
<g>
</g>
<g>
</g>
<g>
</g>
<g>
</g>
<g>
</g>
</svg>
