<?xml version="1.0" encoding="iso-8859-1"?>
<!-- Generator: Adobe Illustrator 19.0.0, SVG Export Plug-In . SVG Version: 6.00 Build 0)  -->
<svg version="1.1" id="Layer_1" xmlns="http://www.w3.org/2000/svg" xmlns:xlink="http://www.w3.org/1999/xlink" x="0px" y="0px"
	 viewBox="0 0 512 512" style="enable-background:new 0 0 512 512;" xml:space="preserve">
<g>
	<path style="fill:#F15A24;" d="M294.003,434.627c-0.341,3.266-8.951,5.858-19.457,5.858h-37.094
		c-10.505,0-19.115-2.593-19.457-5.858l-15.782-156.574h107.571L294.003,434.627z"/>
	<path style="fill:#F15A24;" d="M309.785,278.052H202.214l4.587-141.276c0.442-13.592,11.588-24.922,25.188-24.922h48.021
		c13.6,0,24.746,11.328,25.188,24.922L309.785,278.052z"/>
	<path style="fill:#F15A24;" d="M206.801,311.996c0.442,3.266,11.588,5.858,25.188,5.858h48.021c13.6,0,24.746-2.593,25.188-5.858"
		/>
	<path style="fill:#F15A24;" d="M210.619,352.872c0.407,3.266,10.689,5.858,23.233,5.858h44.294c12.544,0,22.826-2.593,23.233-5.858
		"/>
	<path style="fill:#F15A24;" d="M214.351,393.749c0.373,3.266,9.81,5.858,21.322,5.858h40.652c11.513,0,20.949-2.593,21.322-5.858"
		/>
	<path style="fill:#F15A24;" d="M337.754,501.801l-80.679-25.817l-82.83,25.817l1.904-25.832
		c3.061-17.315,16.364-31.018,33.582-34.589l0,0c2.87-0.596,5.793-0.895,8.724-0.895h75.09c2.931,0,5.854,0.3,8.724,0.895l0,0
		c17.217,3.571,30.521,17.273,33.582,34.589L337.754,501.801z"/>
	<path style="fill:#F15A24;" d="M256,63.985L256,63.985c-10.991,0-19.901,8.91-19.901,19.901v27.968H275.9V83.885
		C275.9,72.895,266.99,63.985,256,63.985z"/>
	<path style="fill:#F15A24;" d="M150.58,90.312c0,54.037-15.171,51.096-33.885,51.096s-33.885,2.94-33.885-51.096
		c0-28.22,15.171-51.096,33.885-51.096S150.58,62.092,150.58,90.312z"/>
	<path style="fill:#F15A24;" d="M429.19,90.312c0,54.037-15.171,51.096-33.885,51.096c-18.714,0-33.885,2.94-33.885-51.096
		c0-28.22,15.171-51.096,33.885-51.096C414.019,39.216,429.19,62.092,429.19,90.312z"/>
</g>
<path d="M361.421,192.513c2.137,0,4.218-0.671,5.953-1.917l34.422-24.741c2.665-1.916,4.246-4.999,4.246-8.282v-6.079
	c7.071-0.423,14.311-2.08,20.472-8.194c9.025-8.954,12.875-24.8,12.875-52.988c0-34.371-19.364-61.296-44.085-61.296
	S351.22,55.94,351.22,90.312c0,28.188,3.85,44.034,12.875,52.988c6.475,6.424,14.138,7.928,21.547,8.25v0.792l-27.508,19.772H316.55
	l-1.158-35.67c-0.555-17.079-13.199-31.313-29.294-34.232V83.885c0-3.186-0.502-6.257-1.424-9.142l20.758-20.758
	c1.912-1.912,2.987-4.507,2.987-7.212V10.199C308.42,4.566,303.853,0,298.221,0c-5.632,0-10.199,4.566-10.199,10.199v32.35
	l-15.924,15.923c-4.66-2.963-10.18-4.687-16.098-4.687s-11.439,1.724-16.098,4.687l-15.924-15.924V10.199
	C223.977,4.566,219.41,0,213.778,0s-10.199,4.566-10.199,10.199v36.574c0,2.705,1.075,5.3,2.987,7.212l20.758,20.758
	c-0.922,2.884-1.424,5.955-1.424,9.142v18.328c-16.095,2.92-28.738,17.153-29.294,34.232l-1.158,35.67h-41.584l-27.508-19.772
	v-0.792c7.409-0.322,15.072-1.826,21.547-8.25c9.025-8.954,12.875-24.8,12.875-52.988c0-34.371-19.363-61.296-44.084-61.296
	S72.611,55.941,72.611,90.312c0,28.187,3.85,44.034,12.875,52.988c6.162,6.114,13.403,7.769,20.472,8.192v6.081
	c0,3.283,1.581,6.365,4.246,8.282l34.422,24.741c1.735,1.246,3.817,1.917,5.953,1.917h44.206l-0.77,23.706h-44.512
	c-2.137,0-4.218,0.671-5.953,1.917l-34.422,24.741c-2.665,1.916-4.246,4.999-4.246,8.282v16.135c0,5.633,4.567,10.199,10.199,10.199
	s10.199-4.566,10.199-10.199v-10.906l27.508-19.772h40.565l-0.909,28.009h-42.941c-2.705,0-5.298,1.075-7.212,2.987l-34.422,34.422
	c-1.912,1.912-2.987,4.506-2.987,7.212v33.347c0,5.633,4.567,10.199,10.199,10.199s10.199-4.566,10.199-10.199v-29.122
	l28.449-28.449h38.938l14.758,146.423c-21.316,4.519-37.523,21.271-41.319,42.747c-0.06,0.34-0.103,0.681-0.127,1.026l-1.903,25.832
	c-0.248,3.367,1.185,6.638,3.829,8.737c2.644,2.099,6.153,2.755,9.377,1.749l79.754-24.858l77.611,24.836
	c1.018,0.325,2.065,0.485,3.108,0.485c2.261,0,4.491-0.752,6.312-2.188c2.662-2.098,4.108-5.381,3.859-8.761l-1.903-25.832
	c-0.024-0.344-0.067-0.686-0.128-1.026c-3.797-21.475-20.003-38.228-41.319-42.747l14.758-146.423h38.938l28.449,28.449v29.123
	c0,5.633,4.567,10.199,10.199,10.199c5.632,0,10.199-4.566,10.199-10.199v-33.347c0-2.705-1.075-5.3-2.987-7.212l-34.422-34.422
	c-1.913-1.912-4.507-2.987-7.212-2.987h-42.941l-0.909-28.009h40.565l27.508,19.772v10.906c0,5.633,4.567,10.199,10.199,10.199
	c5.632,0,10.199-4.566,10.199-10.199v-16.135c0-3.283-1.581-6.365-4.246-8.282l-34.422-24.741c-1.735-1.246-3.817-1.917-5.953-1.917
	h-44.512l-0.77-23.706h44.204V192.513z M371.62,90.312c0-16.357,5.751-29.341,12.948-36.002v45.146
	c0,5.633,4.567,10.199,10.199,10.199c5.632,0,10.199-4.566,10.199-10.199V53.368c7.692,6.326,14.025,19.778,14.025,36.944
	c0,26.214-3.722,35.41-6.844,38.507c-2.399,2.379-6.664,2.458-14.004,2.404c-1.873-0.015-3.804-0.015-5.677,0
	c-7.332,0.056-11.606-0.025-14.003-2.404C375.341,125.722,371.62,116.526,371.62,90.312z M113.856,131.224
	c-7.333,0.056-11.606-0.025-14.004-2.404c-3.122-3.099-6.844-12.293-6.844-38.507c0-16.357,5.752-29.342,12.949-36.002v45.146
	c0,5.633,4.567,10.199,10.199,10.199c5.632,0,10.199-4.566,10.199-10.199V53.368c7.691,6.326,14.024,19.778,14.024,36.944
	c0,26.215-3.722,35.41-6.844,38.507c-2.398,2.379-6.667,2.46-14.002,2.404h-5.678V131.224z M296.735,305.826
	c-2.705,0.796-8.489,1.828-16.725,1.828h-48.022c-8.236,0-14.019-1.032-16.725-1.828l-1.772-17.575h85.014L296.735,305.826z
	 M288.445,388.075c-2.355,0.633-6.539,1.334-12.12,1.334h-40.651c-5.58,0-9.765-0.701-12.12-1.334l-2.005-19.896
	c4.067,0.55,8.304,0.75,12.303,0.75h44.295c3.999,0,8.237-0.2,12.303-0.75L288.445,388.075z M227.705,429.257l-2.018-20.028
	c3.562,0.44,7.047,0.578,9.988,0.578h40.651c2.941,0,6.427-0.139,9.988-0.578l-2.018,20.028c-2.092,0.52-5.416,1.029-9.748,1.029
	h-37.093C233.121,430.286,229.797,429.777,227.705,429.257z M292.592,346.932c-2.544,0.723-7.536,1.599-14.445,1.599h-44.295
	c-6.908,0-11.901-0.876-14.445-1.599l-1.995-19.794c4.225,0.609,9.084,0.914,14.577,0.914h48.022c5.492,0,10.352-0.306,14.577-0.914
	L292.592,346.932z M256,74.184c5.349,0,9.701,4.352,9.701,9.701v17.769h-19.402V83.885C246.298,78.536,250.65,74.184,256,74.184z
	 M280.01,122.053c7.998,0,14.726,6.753,14.994,15.054l4.245,130.746h-86.5l4.245-130.747c0.269-8.3,6.996-15.053,14.994-15.053
	C231.988,122.053,280.01,122.053,280.01,122.053z M293.545,450.684c2.232,0,4.469,0.229,6.653,0.682
	c13.051,2.707,23.02,12.847,25.52,25.902l0.753,10.214l-66.288-21.212c-1.997-0.638-4.143-0.648-6.143-0.022l-68.522,21.357
	l0.762-10.335c2.501-13.056,12.471-23.196,25.52-25.902c2.185-0.453,4.422-0.682,6.653-0.682h75.092V450.684z"/>
<path d="M274.492,166.695c0.112,0,0.226-0.001,0.34-0.005c5.63-0.185,10.044-4.898,9.861-10.528l-0.211-6.454
	c-0.186-5.63-4.909-10.025-10.528-9.86c-5.63,0.185-10.044,4.898-9.861,10.528l0.211,6.454
	C264.485,162.346,269.013,166.695,274.492,166.695z"/>
<path d="M275.254,180.726c-5.629,0.202-10.028,4.929-9.826,10.559l1.893,52.711c0.197,5.505,4.721,9.833,10.185,9.833
	c0.123,0,0.249-0.002,0.373-0.006c5.629-0.202,10.028-4.929,9.826-10.559l-1.893-52.71
	C285.61,184.924,280.863,180.51,275.254,180.726z"/>
<g>
</g>
<g>
</g>
<g>
</g>
<g>
</g>
<g>
</g>
<g>
</g>
<g>
</g>
<g>
</g>
<g>
</g>
<g>
</g>
<g>
</g>
<g>
</g>
<g>
</g>
<g>
</g>
<g>
</g>
</svg>
