<?xml version="1.0" encoding="iso-8859-1"?>
<!-- Generator: Adobe Illustrator 19.0.0, SVG Export Plug-In . SVG Version: 6.00 Build 0)  -->
<svg version="1.1" id="Layer_1" xmlns="http://www.w3.org/2000/svg" xmlns:xlink="http://www.w3.org/1999/xlink" x="0px" y="0px"
	 viewBox="0 0 512 512" style="enable-background:new 0 0 512 512;" xml:space="preserve">
<path style="fill:#E6E6E6;" d="M303.301,81.158c-27.431-42.683-75.33-70.959-129.837-70.959
	c-85.178,0-154.228,69.051-154.228,154.228c0,46.003,20.149,87.293,52.092,115.55c-0.186,3.632-0.282,7.287-0.282,10.965
	c0,116.453,94.405,210.858,210.859,210.858s210.858-94.405,210.858-210.858C492.765,181.711,409.707,91.881,303.301,81.158z"/>
<circle style="fill:#FFCC75;" cx="173.469" cy="164.432" r="77.116"/>
<path d="M281.905,512c-59.047,0-114.559-22.994-156.311-64.746c-41.752-41.752-64.747-97.265-64.747-156.312
	c0-2.196,0.033-4.412,0.099-6.629c-33.052-31.038-51.91-74.45-51.91-119.886C9.037,73.762,82.8,0,173.464,0
	c54.595,0,104.958,26.652,135.702,71.553c52.348,6.444,100.598,31.428,136.312,70.694c37.07,40.754,57.484,93.562,57.484,148.696
	c0,59.047-22.994,114.56-64.746,156.312C396.465,489.006,340.953,512,281.905,512z M173.464,20.398
	c-79.418,0-144.029,64.611-144.029,144.029c0,41.229,17.732,80.561,48.651,107.911c2.325,2.057,3.587,5.061,3.428,8.161
	c-0.178,3.474-0.268,6.987-0.268,10.443c0,110.644,90.015,200.659,200.659,200.659s200.659-90.015,200.659-200.659
	c0-103.455-77.506-189.28-180.287-199.636c-3.093-0.312-5.877-2.018-7.557-4.633C268.052,45.173,222.723,20.398,173.464,20.398z"/>
<path d="M173.464,251.741c-48.145,0-87.313-39.168-87.313-87.313s39.168-87.313,87.313-87.313c48.144,0,87.312,39.168,87.312,87.313
	S221.609,251.741,173.464,251.741z M173.464,97.513c-36.897,0-66.915,30.018-66.915,66.915s30.018,66.915,66.915,66.915
	s66.914-30.018,66.914-66.915S210.361,97.513,173.464,97.513z"/>
<path d="M281.905,474.263c-5.632,0-10.199-4.566-10.199-10.199s4.567-10.199,10.199-10.199c34.193,0,66.917-10.473,94.633-30.286
	c4.583-3.276,10.952-2.215,14.228,2.366c3.276,4.583,2.217,10.953-2.365,14.229C357.205,462.475,320.379,474.263,281.905,474.263z"
	/>
<path d="M411.323,416.128c-2.41,0-4.829-0.85-6.773-2.577c-4.209-3.742-4.588-10.189-0.846-14.399
	c3.274-3.681,6.418-7.559,9.347-11.522c3.347-4.53,9.733-5.489,14.263-2.144c4.53,3.347,5.491,9.733,2.144,14.264
	c-3.292,4.457-6.827,8.816-10.508,12.956C416.935,414.972,414.135,416.128,411.323,416.128z"/>
<g>
</g>
<g>
</g>
<g>
</g>
<g>
</g>
<g>
</g>
<g>
</g>
<g>
</g>
<g>
</g>
<g>
</g>
<g>
</g>
<g>
</g>
<g>
</g>
<g>
</g>
<g>
</g>
<g>
</g>
</svg>
