<?xml version="1.0" encoding="iso-8859-1"?>
<!-- Generator: Adobe Illustrator 19.0.0, SVG Export Plug-In . SVG Version: 6.00 Build 0)  -->
<svg version="1.1" id="Layer_1" xmlns="http://www.w3.org/2000/svg" xmlns:xlink="http://www.w3.org/1999/xlink" x="0px" y="0px"
	 viewBox="0 0 512 512" style="enable-background:new 0 0 512 512;" xml:space="preserve">
<path style="fill:#FBB03B;" d="M209.278,270.431c-7.475,21.65-33.072,37.603-63.512,37.603c-29.661,0-54.725-15.148-62.905-35.952
	c-43.248,21.179-72.662,63.548-72.662,116.06c0,76.007,61.615,112.972,137.621,112.972c76.007,0,137.621-36.966,137.621-112.972
	C285.441,334.226,254.431,291.005,209.278,270.431z"/>
<path style="fill:#FFCC75;" d="M145.766,308.034c30.441,0,56.037-15.954,63.512-37.603c-14.039-6.397-29.444-10.608-45.711-12.267
	c-1.128-0.115-6.999-4.905-16.433-4.905c-11.055,0-16.677,5.073-17.802,5.208c-16.612,1.997-32.286,6.667-46.472,13.614
	C91.042,292.887,116.105,308.034,145.766,308.034z"/>
<path style="fill:#FBB03B;" d="M332.076,19.466c10.023,20.594,3.204,49.975-18.321,71.499
	c-20.974,20.974-49.407,27.986-69.902,19.058c-15.605,45.557-6.445,96.315,30.686,133.447
	c53.745,53.745,123.452,36.315,177.197-17.429s71.173-123.452,17.429-177.197C431.041,10.72,378.552,2.086,332.076,19.466z"/>
<path style="fill:#FFCC75;" d="M313.755,90.966c21.524-21.524,28.344-50.905,18.321-71.499
	c-14.45,5.404-28.321,13.319-40.997,23.648c-0.879,0.716-8.416,1.481-15.088,8.151c-7.817,7.817-8.205,15.379-8.905,16.271
	c-10.335,13.159-18.115,27.544-23.234,42.487C264.348,118.95,292.781,111.939,313.755,90.966z"/>
<path d="M213.508,261.15c-14.751-6.721-30.593-11.07-47.115-12.94c-3.189-1.722-9.941-5.15-19.257-5.15
	c-10.631,0-17.543,3.613-20.871,5.515c-16.885,2.226-32.987,7.05-47.889,14.347c-0.002,0.001-0.004,0.002-0.006,0.003
	C29.297,286.96,0,333.769,0,388.142c0,39.084,15.345,71.29,44.375,93.138c26.109,19.649,61.88,30.034,103.445,30.034
	s77.338-10.386,103.445-30.034c29.03-21.847,44.375-54.054,44.375-93.138c0-27.925-7.904-54.557-22.859-77.012
	C258.414,289.554,237.918,272.272,213.508,261.15z M130.552,268.594c2.328-0.279,3.981-1.237,5.309-2.005
	c2.021-1.17,5.405-3.129,11.275-3.129c4.6,0,7.962,1.828,9.971,2.919c1.464,0.796,3.123,1.697,5.428,1.933
	c11.32,1.155,22.266,3.638,32.67,7.395c-9.346,13.369-28.238,22.129-49.438,22.129c-20.334,0-38.846-8.273-48.525-20.931
	C107.798,272.78,118.958,269.988,130.552,268.594z M147.82,490.915c-61.599,0-127.422-26.998-127.422-102.773
	c0-43.094,21.58-80.63,58.229-102.208c12.926,19.682,38.466,32.3,67.139,32.3c29.3,0,55.673-13.558,68.209-34.041
	c38.553,21.231,61.266,59.417,61.266,103.949C275.242,463.917,209.42,490.915,147.82,490.915z"/>
<path d="M476.377,41.633c-19.747-19.747-44.167-32.987-70.62-38.292c-25.416-5.099-52.13-2.824-77.255,6.571
	c-0.002,0.001-0.003,0.001-0.005,0.002c-15.18,5.678-29.456,13.803-42.459,24.163c-3.473,1.038-10.67,3.388-17.259,9.976
	c-7.517,7.518-9.85,14.959-10.858,18.656c-10.365,13.514-18.339,28.308-23.716,44.004c0,0.001-0.001,0.002-0.001,0.004
	c-17.708,51.697-5.326,105.516,33.124,143.965c23.486,23.485,51.293,35.623,81.194,35.623c5.285,0,10.638-0.379,16.042-1.142
	c32.355-4.568,64.992-22.518,94.384-51.909c29.391-29.392,47.342-62.03,51.91-94.385C515.937,102.894,504.014,69.27,476.377,41.633z
	 M275.107,73.837c1.448-1.845,1.941-3.691,2.337-5.174c0.602-2.257,1.609-6.035,5.759-10.185c3.253-3.253,6.922-4.337,9.115-4.985
	c1.597-0.472,3.408-1.008,5.205-2.471c8.821-7.189,18.318-13.172,28.33-17.872c2.846,16.062-4.319,35.614-19.31,50.604
	c-14.379,14.379-33.318,21.617-49.112,19.512C261.98,92.884,267.896,83.019,275.107,73.837z M444.524,218.829
	c-43.557,43.557-109.192,71.01-162.772,17.429c-30.472-30.472-41.755-72.274-31.099-113.447
	c23.059,4.778,50.039-4.359,70.313-24.634c20.719-20.719,29.782-48.954,24.161-72.302c42.274-12.249,85.337-1.308,116.825,30.181
	C515.534,109.637,488.082,175.272,444.524,218.829z"/>
<path d="M139.403,452.844c-32.771,0-59.245-10.9-72.633-29.906c-3.243-4.605-9.606-5.71-14.212-2.465
	c-4.605,3.243-5.708,9.607-2.465,14.212c17.514,24.864,49.232,38.557,89.308,38.557c5.633,0,10.199-4.566,10.199-10.199
	C149.601,457.409,145.036,452.844,139.403,452.844z"/>
<path d="M56.242,391.218c-0.098-1.61-0.147-3.271-0.147-4.934c0-5.633-4.566-10.199-10.199-10.199s-10.199,4.566-10.199,10.199
	c0,2.073,0.062,4.149,0.185,6.168c0.328,5.413,4.82,9.583,10.171,9.583c0.208,0,0.417-0.006,0.626-0.019
	C52.303,401.675,56.584,396.841,56.242,391.218z"/>
<g>
</g>
<g>
</g>
<g>
</g>
<g>
</g>
<g>
</g>
<g>
</g>
<g>
</g>
<g>
</g>
<g>
</g>
<g>
</g>
<g>
</g>
<g>
</g>
<g>
</g>
<g>
</g>
<g>
</g>
</svg>
