<?xml version="1.0" encoding="iso-8859-1"?>
<!-- Generator: Adobe Illustrator 19.0.0, SVG Export Plug-In . SVG Version: 6.00 Build 0)  -->
<svg version="1.1" id="Layer_1" xmlns="http://www.w3.org/2000/svg" xmlns:xlink="http://www.w3.org/1999/xlink" x="0px" y="0px"
	 viewBox="0 0 512 512" style="enable-background:new 0 0 512 512;" xml:space="preserve">
<rect x="111.528" y="45.356" style="fill:#E6E6E6;" width="288.954" height="456.445"/>
<g>
	<rect x="282.844" y="10.199" style="fill:#6DA8D6;" width="95.893" height="35.16"/>
	<rect x="111.528" y="108.652" style="fill:#6DA8D6;" width="288.954" height="329.863"/>
</g>
<path style="fill:#E6E6E6;" d="M309.117,299.732c0,27.924-22.637,50.561-50.561,50.561s-50.561-22.637-50.561-50.561
	s50.561-102.865,50.561-102.865S309.117,271.808,309.117,299.732z"/>
<path d="M101.325,501.801c0,5.633,4.566,10.199,10.199,10.199h288.953c5.633,0,10.199-4.566,10.199-10.199V45.359
	c0-5.633-4.566-10.199-10.199-10.199H388.94V10.199C388.94,4.566,384.374,0,378.741,0H282.85c-5.633,0-10.199,4.566-10.199,10.199
	V35.16H111.524c-5.633,0-10.199,4.566-10.199,10.199V501.801z M293.048,20.398h75.492V35.16h-75.492V20.398z M390.276,55.558v42.89
	H121.723v-42.89H390.276z M390.276,428.314H121.723V118.846h268.554v309.467H390.276z M121.723,491.602v-42.89h268.554v42.89
	H121.723z"/>
<path d="M258.556,360.492c33.503,0,60.76-27.257,60.76-60.76c0-30.172-46.952-100.633-52.306-108.57
	c-1.896-2.81-5.065-4.495-8.455-4.495c-3.39,0-6.559,1.685-8.455,4.495c-5.354,7.935-52.306,78.397-52.306,108.57
	C197.797,333.236,225.054,360.492,258.556,360.492z M258.557,215.512c18.208,28.685,40.36,68.675,40.36,84.22
	c0,22.256-18.106,40.361-40.361,40.361s-40.361-18.106-40.361-40.361C218.195,284.202,240.35,244.205,258.557,215.512z"/>
<path d="M363.397,286.338c5.633,0,10.199-4.566,10.199-10.199v-3.837c0-5.633-4.566-10.199-10.199-10.199
	s-10.199,4.566-10.199,10.199v3.837C353.198,281.771,357.764,286.338,363.397,286.338z"/>
<path d="M363.397,411.634c5.633,0,10.199-4.566,10.199-10.199v-95.891c0-5.633-4.566-10.199-10.199-10.199
	s-10.199,4.566-10.199,10.199v95.891C353.198,407.068,357.764,411.634,363.397,411.634z"/>
<g>
</g>
<g>
</g>
<g>
</g>
<g>
</g>
<g>
</g>
<g>
</g>
<g>
</g>
<g>
</g>
<g>
</g>
<g>
</g>
<g>
</g>
<g>
</g>
<g>
</g>
<g>
</g>
<g>
</g>
</svg>
