<?xml version="1.0" encoding="iso-8859-1"?>
<!-- Generator: Adobe Illustrator 19.0.0, SVG Export Plug-In . SVG Version: 6.00 Build 0)  -->
<svg version="1.1" id="Layer_1" xmlns="http://www.w3.org/2000/svg" xmlns:xlink="http://www.w3.org/1999/xlink" x="0px" y="0px"
	 viewBox="0 0 511.999 511.999" style="enable-background:new 0 0 511.999 511.999;" xml:space="preserve">
<path style="fill:#4D4D4D;" d="M471.599,271.822L295.204,448.217c-21.652,21.652-56.756,21.652-78.408,0L40.4,271.822
	C-4.583,226.839,1.451,152.017,53.382,115.272c52.577-37.202,123.974-67.699,202.617-67.699s150.04,30.499,202.618,67.699
	C510.548,152.017,516.582,226.839,471.599,271.822z"/>
<path d="M511.589,189.304c-2.819-33.164-19.979-63.182-47.08-82.357c-36.723-25.983-112.643-69.573-208.509-69.573
	S84.214,80.963,47.491,106.947C20.39,126.122,3.229,156.14,0.411,189.304c-2.835,33.358,9.112,66.063,32.778,89.73L209.584,455.43
	c12.797,12.796,29.606,19.195,46.416,19.195s33.62-6.398,46.416-19.195l176.395-176.395
	C502.477,255.367,514.424,222.663,511.589,189.304z M464.387,264.61L287.992,441.006c-8.82,8.821-20.405,13.231-31.992,13.23
	c-11.584-0.001-23.174-4.411-31.992-13.23L47.612,264.61c-10.286-10.286-17.871-22.655-22.384-36.083
	c69.66-68.312,149.392-104.419,230.771-104.419c43.41,0,86.35,10.151,127.632,30.172c5.068,2.457,11.169,0.343,13.628-4.726
	c2.457-5.068,0.342-11.17-4.727-13.627c-44.079-21.377-90.015-32.217-136.532-32.217c-83.065,0-164.146,34.887-235.412,101.052
	c-0.284-4.541-0.244-9.127,0.148-13.73c2.309-27.159,16.355-51.738,38.539-67.434c34.745-24.584,106.504-65.826,196.726-65.826
	s161.981,41.242,196.726,65.827c22.183,15.696,36.23,40.275,38.539,67.434C493.589,218.386,483.793,245.204,464.387,264.61z"/>
<path d="M299.861,380.599c-13.176-8.104-28.344-12.388-43.862-12.388s-30.685,4.284-43.862,12.388
	c-4.798,2.952-6.295,9.233-3.343,14.031c2.951,4.798,9.23,6.296,14.031,3.343c9.961-6.127,21.432-9.365,33.174-9.365
	c11.742,0,23.214,3.238,33.174,9.365c1.667,1.025,3.511,1.514,5.333,1.514c3.425,0,6.771-1.726,8.697-4.857
	C306.156,389.831,304.658,383.55,299.861,380.599z"/>
<path d="M437.623,161.918c-2.175-1.461-4.407-2.927-6.634-4.358c-4.739-3.048-11.049-1.674-14.094,3.065
	c-3.045,4.739-1.674,11.049,3.065,14.094c2.112,1.359,4.23,2.749,6.293,4.134c1.745,1.172,3.721,1.733,5.676,1.733
	c3.284,0,6.508-1.583,8.477-4.514C443.546,171.394,442.299,165.059,437.623,161.918z"/>
<path d="M255.489,346.792c5.632,0,10.199-4.566,10.199-10.199V166.266c0-5.633-4.567-10.199-10.199-10.199
	s-10.199,4.566-10.199,10.199v170.326C245.29,342.226,249.857,346.792,255.489,346.792z"/>
<path d="M412.587,226.268L296.825,338.815c-4.039,3.927-4.13,10.384-0.203,14.423c2,2.057,4.655,3.089,7.314,3.089
	c2.562,0,5.126-0.96,7.109-2.886l115.761-112.547c4.039-3.927,4.13-10.384,0.203-14.423
	C423.082,222.433,416.626,222.342,412.587,226.268z"/>
<path d="M215.377,353.237c3.927-4.039,3.836-10.496-0.203-14.423L99.412,226.268c-4.039-3.928-10.497-3.836-14.423,0.203
	c-3.927,4.039-3.836,10.496,0.203,14.423l115.762,112.547c1.982,1.928,4.547,2.886,7.109,2.886
	C210.722,356.327,213.378,355.294,215.377,353.237z"/>
<g>
</g>
<g>
</g>
<g>
</g>
<g>
</g>
<g>
</g>
<g>
</g>
<g>
</g>
<g>
</g>
<g>
</g>
<g>
</g>
<g>
</g>
<g>
</g>
<g>
</g>
<g>
</g>
<g>
</g>
</svg>
