<?xml version="1.0" encoding="iso-8859-1"?>
<!-- Generator: Adobe Illustrator 19.0.0, SVG Export Plug-In . SVG Version: 6.00 Build 0)  -->
<svg version="1.1" id="Layer_1" xmlns="http://www.w3.org/2000/svg" xmlns:xlink="http://www.w3.org/1999/xlink" x="0px" y="0px"
	 viewBox="0 0 512 512" style="enable-background:new 0 0 512 512;" xml:space="preserve">
<rect x="189.574" y="133.61" style="fill:#FBB03B;" width="132.865" height="28.874"/>
<g>
	<rect x="178.324" y="99.116" style="fill:#F15A24;" width="155.354" height="34.493"/>
	<polygon style="fill:#F15A24;" points="245.269,10.199 266.733,10.199 288.707,99.117 223.295,99.117 	"/>
</g>
<g>
	<polygon style="fill:#FBB03B;" points="334.698,162.484 177.304,162.484 168.312,214.183 343.69,214.183 	"/>
	<path style="fill:#FBB03B;" d="M138.033,388.29c-1.072,6.163-1.61,12.408-1.61,18.664v9.787c0,33.091,15.042,64.388,40.881,85.059
		l0,0h157.394l0,0c25.84-20.672,40.881-51.968,40.881-85.059v-9.787c0-6.256-0.539-12.5-1.61-18.664l-3.318-19.079H141.351
		L138.033,388.29z"/>
</g>
<polygon style="fill:#E6E6E6;" points="168.312,214.183 141.351,369.211 370.651,369.211 343.69,214.183 "/>
<path d="M127.985,386.543C127.984,386.543,127.984,386.543,127.985,386.543c-1.169,6.722-1.762,13.589-1.762,20.412v9.787
	c0,36.387,16.296,70.293,44.709,93.024c1.808,1.446,4.056,2.235,6.371,2.235h157.394c2.316,0,4.563-0.788,6.371-2.235
	c28.413-22.731,44.709-56.636,44.709-93.024v-9.787c0-6.822-0.593-13.689-1.762-20.412l-39.27-225.806
	c-0.85-4.885-5.09-8.452-10.049-8.452h-2.065v-8.476h1.043c5.632,0,10.199-4.566,10.199-10.199V99.117
	c0-5.633-4.567-10.199-10.199-10.199H296.69L276.631,7.752C275.508,3.198,271.422,0,266.732,0h-21.462
	c-4.691,0-8.775,3.198-9.901,7.752l-20.059,81.165h-36.984c-5.632,0-10.199,4.566-10.199,10.199v34.493
	c0,5.633,4.567,10.199,10.199,10.199h1.043v8.476h-2.065c-4.958,0-9.2,3.567-10.049,8.452L127.985,386.543z M326.12,172.683
	l5.443,31.301H180.439l5.443-31.301H326.12z M253.255,20.398h5.492l16.933,68.519h-39.357L253.255,20.398z M323.477,109.316v14.094
	H188.525v-14.094H323.477z M199.768,143.809h112.467v8.476H199.768L199.768,143.809L199.768,143.809z M176.892,224.382h158.219
	l23.413,134.629H153.478L176.892,224.382z M365.38,416.741c0,28.985-12.478,56.072-34.358,74.86H180.979
	c-21.879-18.788-34.358-45.875-34.358-74.86v-9.787c0-5.654,0.491-11.347,1.461-16.916l1.849-10.628h212.141l1.849,10.628
	c0.969,5.57,1.461,11.262,1.461,16.916v9.787H365.38z"/>
<path d="M241.722,331.474h-64.255c-5.632,0-10.199,4.566-10.199,10.199s4.567,10.199,10.199,10.199h64.255
	c5.632,0,10.199-4.566,10.199-10.199S247.354,331.474,241.722,331.474z"/>
<path d="M278.439,331.474h-6.12c-5.632,0-10.199,4.566-10.199,10.199s4.567,10.199,10.199,10.199h6.12
	c5.632,0,10.199-4.566,10.199-10.199S284.071,331.474,278.439,331.474z"/>
<g>
</g>
<g>
</g>
<g>
</g>
<g>
</g>
<g>
</g>
<g>
</g>
<g>
</g>
<g>
</g>
<g>
</g>
<g>
</g>
<g>
</g>
<g>
</g>
<g>
</g>
<g>
</g>
<g>
</g>
</svg>
