<?xml version="1.0" encoding="iso-8859-1"?>
<!-- Generator: Adobe Illustrator 19.0.0, SVG Export Plug-In . SVG Version: 6.00 Build 0)  -->
<svg version="1.1" id="Layer_1" xmlns="http://www.w3.org/2000/svg" xmlns:xlink="http://www.w3.org/1999/xlink" x="0px" y="0px"
	 viewBox="0 0 511.999 511.999" style="enable-background:new 0 0 511.999 511.999;" xml:space="preserve">
<path style="fill:#FFCC75;" d="M378.208,131.969c-21.418-0.073-41.578,5.282-59.182,14.77c-39.227,21.14-86.829,21.139-126.055,0
	c-17.604-9.487-37.764-14.843-59.182-14.77c-68.455,0.235-124.195,56.693-123.59,125.148c0.6,67.985,55.898,122.913,124.026,122.913
	c20.914,0,40.617-5.176,57.901-14.318c39.992-21.154,87.758-21.154,127.75,0c17.283,9.142,36.987,14.318,57.901,14.318
	c68.127,0,123.425-54.927,124.026-122.913C502.404,188.663,446.664,132.203,378.208,131.969z"/>
<path d="M511.997,256.812c0-0.008,0.001-0.016,0.001-0.023c0.001-0.036-0.002-0.072-0.001-0.108
	c0.177-35.657-13.605-69.343-38.854-94.902c-25.364-25.677-59.066-39.885-94.898-40.008c-22.358-0.078-44.502,5.454-64.056,15.991
	c-36.436,19.636-79.942,19.636-116.378,0c-19.553-10.538-41.748-16.08-64.055-15.991c-35.833,0.123-69.534,14.331-94.898,40.007
	c-25.249,25.561-39.032,59.245-38.855,94.903c0,0.037-0.002,0.072-0.001,0.109c0,0.008,0.001,0.016,0.001,0.024
	c0.001,0.132-0.003,0.262-0.001,0.394c0.314,35.601,14.416,69.02,39.707,94.103c25.307,25.097,58.874,38.919,94.517,38.919
	c21.826,0,43.496-5.36,62.669-15.501c37.01-19.577,81.202-19.577,118.211,0c19.173,10.141,40.844,15.501,62.669,15.501
	c35.644,0,69.21-13.822,94.517-38.919c25.291-25.082,39.393-58.502,39.707-94.103C512,257.074,511.996,256.944,511.997,256.812z
	 M371.887,369.092c-0.39,0.15-0.76,0.328-1.12,0.519c-14.748-0.912-29.243-4.693-42.474-11.081
	c5.455-6.596,10.232-15.129,14.188-25.178c11.455,1.815,23.356,2.753,35.292,2.753c12.162,0,23.905-0.932,35.052-2.676
	C402.182,350.165,388.11,362.841,371.887,369.092z M266.198,340.013v-20.704c17.494,0.774,34.777,3.536,50.761,8.301
	c1.7,0.507,3.426,0.984,5.165,1.447c-4.038,9.403-8.673,16.362-13.358,20.416C295.012,344.171,280.663,341.022,266.198,340.013z
	 M203.219,349.479c-4.854-4.195-9.409-11.298-13.307-20.431c1.725-0.46,3.438-0.934,5.126-1.437
	c15.984-4.765,33.267-7.527,50.761-8.301v20.704C231.329,341.022,216.976,344.173,203.219,349.479z M141.23,369.612
	c-0.36-0.191-0.73-0.369-1.12-0.519c-16.222-6.252-30.294-18.928-40.938-35.663c11.147,1.744,22.89,2.676,35.052,2.676
	c11.956,0,23.875-0.941,35.347-2.762c3.97,10.119,8.736,18.627,14.146,25.182C170.481,364.917,155.982,368.7,141.23,369.612z
	 M140.142,142.944c0.41-0.159,0.797-0.35,1.173-0.554c14.743,0.915,29.222,4.713,42.457,11.114
	c-5.406,6.556-10.17,15.053-14.14,25.159c-11.491-1.828-23.429-2.772-35.42-2.772c-0.147,0-0.295,0-0.442,0
	c-11.84,0.022-23.48,0.978-34.65,2.773C109.749,161.961,123.836,149.288,140.142,142.944z M245.799,172.512v20.35
	c-17.316-0.771-34.375-3.501-49.864-8.206c-1.958-0.595-3.949-1.154-5.958-1.69c3.847-9.004,8.332-16.043,13.117-20.273
	C216.879,168.196,231.278,171.469,245.799,172.512z M308.88,162.702c4.546,4.061,9.085,10.992,13.072,20.283
	c-1.985,0.531-3.952,1.083-5.889,1.671c-15.489,4.705-32.548,7.435-49.864,8.206v-20.35
	C280.71,171.47,295.102,168.201,308.88,162.702z M370.675,142.384c0.379,0.207,0.771,0.4,1.184,0.561
	c16.304,6.345,30.388,19.017,41.019,35.72c-11.17-1.795-22.809-2.751-34.649-2.773l0,0c-0.148,0-0.293,0-0.442,0
	c-12.024,0-23.995,0.949-35.516,2.786c-3.953-10.019-8.694-18.569-14.08-25.158C341.432,147.108,355.912,143.293,370.675,142.384z
	 M322.787,308.062c-17.809-5.31-37.09-8.349-56.589-9.137v-32.728h68.473c-0.658,16.412-2.876,31.068-6.063,43.477
	C326.642,309.167,324.698,308.632,322.787,308.062z M266.198,245.799v-32.432c19.225-0.801,38.233-3.858,55.793-9.193
	c2.121-0.645,4.279-1.25,6.468-1.819c3.243,12.465,5.515,27.142,6.195,43.443H266.198z M133.809,196.29c0.136,0,0.269,0,0.405,0
	c9.883,0,19.704,0.702,29.199,2.06c-1.763,7.061-3.217,14.612-4.324,22.589c-0.774,5.579,3.121,10.731,8.701,11.505
	c0.475,0.065,0.948,0.098,1.415,0.098c5.011,0,9.381-3.695,10.09-8.799c1.045-7.532,2.468-14.724,4.196-21.398
	c2.205,0.571,4.379,1.181,6.515,1.831c17.559,5.333,36.568,8.392,55.793,9.193V245.8H78.238c0.999-15.655,4.256-30.602,9.398-44.1
	C101.939,198.222,117.611,196.322,133.809,196.29z M57.793,245.799H22.179c1.965-5.576,5.544-11.031,10.726-16.304
	c7.775-7.913,18.36-14.664,30.856-19.977C60.569,221.07,58.515,233.251,57.793,245.799z M22.154,266.198h35.645
	c0.687,12.463,2.631,24.593,5.775,36.166C42.372,293.382,27.131,280.58,22.154,266.198z M78.228,266.198h167.57v32.728
	c-19.499,0.787-38.78,3.828-56.589,9.137c-1.894,0.565-3.821,1.094-5.769,1.599c-1.648-6.388-3.017-13.244-4.037-20.42
	c-0.792-5.577-5.957-9.455-11.532-8.663c-5.577,0.793-9.456,5.955-8.663,11.532c1.079,7.591,2.477,14.787,4.157,21.539
	c-9.482,1.356-19.287,2.057-29.143,2.057c-16.464,0-32.268-1.965-46.59-5.462C82.503,296.752,79.226,281.826,78.228,266.198z
	 M377.773,315.708c-9.833,0-19.618-0.699-29.079-2.047c3.542-14.218,5.759-30.285,6.389-47.462h19.307
	c5.633,0,10.199-4.566,10.199-10.199s-4.566-10.199-10.199-10.199h-19.321c-0.653-17.04-2.918-33.146-6.528-47.443
	c9.508-1.364,19.343-2.066,29.241-2.066c0.134,0,0.271,0,0.405,0c16.198,0.032,31.869,1.932,46.173,5.408
	c6.365,16.711,9.865,35.635,9.734,55.382c-0.124,18.931-3.612,37.068-9.732,53.165C410.042,313.741,394.237,315.708,377.773,315.708
	z M448.235,209.519c12.497,5.313,23.082,12.064,30.857,19.978c8.374,8.522,12.576,17.515,12.505,26.734
	c0,0.098,0.001,0.196,0.001,0.295c-0.319,18.252-17.32,34.887-43.174,45.84c3.894-14.338,5.968-29.529,6.071-45.15
	C454.604,240.644,452.389,224.544,448.235,209.519z M478.22,202.593c-11.062-7.369-24.354-13.417-39.063-17.888
	c-6.418-13.835-14.66-26.162-24.352-36.339c16.312,5.645,31.27,15.036,43.826,27.745C466.514,184.095,473.076,193.01,478.22,202.593
	z M53.368,176.112c12.554-12.709,27.513-22.1,43.825-27.745C87.5,158.542,79.259,170.87,72.84,184.706
	c-14.709,4.47-28,10.518-39.062,17.888C38.922,193.01,45.483,184.094,53.368,176.112z M33.935,309.682
	c10.888,7.259,23.995,13.295,38.742,17.755c1.818,3.921,3.774,7.754,5.903,11.462c5.272,9.177,11.435,17.424,18.256,24.578
	C69.825,354.01,47.37,334.604,33.935,309.682z M415.159,363.477c6.822-7.154,12.985-15.4,18.257-24.577
	c2.13-3.707,4.086-7.54,5.903-11.462c14.747-4.46,27.855-10.496,38.742-17.755C464.626,334.604,442.172,354.01,415.159,363.477z"/>
<path d="M410.473,245.799h-2.255c-5.633,0-10.199,4.566-10.199,10.199c0,5.633,4.566,10.199,10.199,10.199h2.255
	c5.633,0,10.199-4.566,10.199-10.199C420.672,250.365,416.106,245.799,410.473,245.799z"/>
<g>
</g>
<g>
</g>
<g>
</g>
<g>
</g>
<g>
</g>
<g>
</g>
<g>
</g>
<g>
</g>
<g>
</g>
<g>
</g>
<g>
</g>
<g>
</g>
<g>
</g>
<g>
</g>
<g>
</g>
</svg>
