<?xml version="1.0" encoding="iso-8859-1"?>
<!-- Generator: Adobe Illustrator 19.0.0, SVG Export Plug-In . SVG Version: 6.00 Build 0)  -->
<svg version="1.1" id="Layer_1" xmlns="http://www.w3.org/2000/svg" xmlns:xlink="http://www.w3.org/1999/xlink" x="0px" y="0px"
	 viewBox="0 0 512 512" style="enable-background:new 0 0 512 512;" xml:space="preserve">
<g>
	<path style="fill:#C69C6D;" d="M225.756,440.351c0,52.489-27.512,61.45-61.45,61.45s-61.45-8.961-61.45-61.45
		c0-86.654,61.45-117.102,61.45-117.102S225.756,353.698,225.756,440.351z"/>
	<path style="fill:#C69C6D;" d="M117.93,242.09c-52.489,0-61.45-27.512-61.45-61.45s8.961-61.45,61.45-61.45
		c86.654,0,117.102,61.45,117.102,61.45S204.583,242.09,117.93,242.09z"/>
	<path style="fill:#C69C6D;" d="M325.454,120.283c-37.115-37.115-23.997-62.905,0-86.902c23.997-23.997,49.788-37.115,86.902,0
		c61.273,61.273,39.352,126.255,39.352,126.255S386.726,181.556,325.454,120.283z"/>
	<path style="fill:#C69C6D;" d="M415.915,296.85c37.115,37.115,23.997,62.905,0,86.902c-23.997,23.997-49.788,37.115-86.902,0
		c-61.273-61.273-39.352-126.255-39.352-126.255S354.642,235.576,415.915,296.85z"/>
</g>
<path d="M164.306,512c-15.387,0-34.951-1.505-49.782-13.244c-14.714-11.646-21.867-30.75-21.867-58.405
	c0-47.813,17.993-79.451,33.087-97.573c16.551-19.87,33.328-28.318,34.033-28.668c2.853-1.414,6.203-1.414,9.056,0
	c0.706,0.35,17.483,8.797,34.033,28.668c15.095,18.122,33.087,49.76,33.087,97.573c0,27.655-7.154,46.759-21.867,58.405
	C199.258,510.494,179.694,512,164.306,512z M164.305,335.12c-5.283,3.479-14.449,10.401-23.5,21.456
	c-18.413,22.488-27.75,50.675-27.75,83.776c0,21.013,4.621,34.886,14.129,42.411c7.724,6.114,19.173,8.84,37.122,8.84
	s29.398-2.726,37.122-8.84c9.507-7.524,14.129-21.397,14.129-42.411c0-33.102-9.336-61.288-27.75-83.776
	C178.76,345.526,169.6,338.605,164.305,335.12z"/>
<path d="M117.93,252.289c-27.654,0-46.76-7.153-58.406-21.867c-11.738-14.832-13.243-34.394-13.243-49.782
	s1.505-34.95,13.243-49.781c11.646-14.715,30.751-21.868,58.406-21.868c47.813,0,79.451,17.993,97.573,33.087
	c19.87,16.551,28.318,33.327,28.667,34.033c1.415,2.854,1.415,6.203,0,9.057c-0.35,0.706-8.797,17.482-28.667,34.033
	C197.381,234.295,165.743,252.289,117.93,252.289z M117.93,129.389c-21.014,0-34.886,4.621-42.411,14.129
	c-6.113,7.724-8.84,19.173-8.84,37.122c0,17.949,2.726,29.398,8.84,37.122c7.525,9.508,21.397,14.129,42.411,14.129
	c33.101,0,61.288-9.336,83.776-27.75c11.049-9.047,17.97-18.208,21.456-23.502c-3.479-5.282-10.402-14.448-21.456-23.5
	C179.218,138.726,151.031,129.389,117.93,129.389z"/>
<path d="M422.732,173.644c-3.788,0-7.835-0.163-12.099-0.552c-23.488-2.141-58.582-11.79-92.392-45.599l0,0l0,0
	c-19.555-19.555-28.006-38.121-25.836-56.761c2.188-18.787,14.956-33.685,25.836-44.565c10.88-10.879,25.779-23.649,44.565-25.835
	c18.641-2.17,37.206,6.282,56.761,25.836c33.808,33.808,43.457,68.903,45.599,92.391c2.348,25.753-3.542,43.589-3.794,44.336
	c-1.018,3.017-3.386,5.386-6.404,6.404C454.346,169.509,441.824,173.644,422.732,173.644z M368.372,20.408
	c-1.078,0-2.146,0.062-3.207,0.186c-9.785,1.139-19.809,7.307-32.499,19.998c-12.692,12.691-18.859,22.714-19.998,32.499
	c-1.401,12.044,5.139,25.12,19.998,39.979l0,0c23.406,23.407,49.939,36.736,78.861,39.617c14.205,1.417,25.581-0.168,31.79-1.446
	c1.275-6.195,2.862-17.572,1.445-31.788C441.88,90.533,428.551,64,405.144,40.594C391.594,27.041,379.526,20.408,368.372,20.408z"/>
<path d="M372.865,417.132c-16.738,0-33.502-8.605-51.064-26.168c-33.808-33.809-43.457-68.904-45.598-92.392
	c-2.348-25.753,3.542-43.589,3.794-44.335c1.018-3.017,3.386-5.386,6.404-6.404c0.747-0.252,18.582-6.141,44.337-3.794
	c23.486,2.141,58.582,11.79,92.391,45.598c19.555,19.555,28.006,38.122,25.836,56.762c-2.188,18.787-14.956,33.685-25.836,44.565
	c-10.88,10.879-25.777,23.649-44.564,25.835C376.663,417.02,374.763,417.132,372.865,417.132z M298.056,265.873
	c-1.276,6.191-2.867,17.576-1.449,31.806c2.881,28.922,16.21,55.455,39.617,78.861c14.857,14.858,27.929,21.401,39.979,19.998
	c9.785-1.139,19.808-7.307,32.498-19.997c12.692-12.692,18.859-22.715,19.998-32.5c1.401-12.043-5.139-25.12-19.998-39.979
	C362.171,257.529,313.646,262.643,298.056,265.873z"/>
<path d="M351.702,374.311c-2.478,0-4.961-0.896-6.924-2.712c-0.759-0.703-1.527-1.441-2.302-2.217
	c-3.982-3.985-3.98-10.442,0.005-14.424c3.984-3.982,10.443-3.98,14.424,0.005c0.581,0.581,1.157,1.135,1.726,1.661
	c4.135,3.825,4.386,10.278,0.561,14.412C357.181,373.21,354.444,374.311,351.702,374.311z"/>
<path d="M378.388,383.397c-4.359,0-8.395-2.817-9.745-7.201c-1.657-5.383,1.364-11.092,6.747-12.749
	c3.374-1.039,7.158-3.736,11.909-8.488c3.984-3.983,10.44-3.983,14.425,0c3.983,3.983,3.983,10.441,0,14.425
	c-4.527,4.527-11.561,10.858-20.332,13.559C380.393,383.25,379.381,383.397,378.388,383.397z"/>
<g>
</g>
<g>
</g>
<g>
</g>
<g>
</g>
<g>
</g>
<g>
</g>
<g>
</g>
<g>
</g>
<g>
</g>
<g>
</g>
<g>
</g>
<g>
</g>
<g>
</g>
<g>
</g>
<g>
</g>
</svg>
